<svg id="Arrows-Left" xmlns="http://www.w3.org/2000/svg" width="46.706" height="25.653" viewBox="0 0 46.706 25.653">
  <path id="Icon_awesome-chevron-left" data-name="Icon awesome-chevron-left" d="M2.346,14.478,13.763,3.061a1.41,1.41,0,0,1,1.994,0l1.332,1.332a1.41,1.41,0,0,1,0,1.991l-9.049,9.09,9.048,9.091a1.409,1.409,0,0,1,0,1.991l-1.332,1.332a1.41,1.41,0,0,1-1.994,0L2.346,16.471A1.41,1.41,0,0,1,2.346,14.478Z" transform="translate(-1.933 -2.648)" fill="rgba(237,31,36,0.5)"/>
  <path id="Icon_awesome-chevron-left-2" data-name="Icon awesome-chevron-left" d="M2.346,14.478,13.763,3.061a1.41,1.41,0,0,1,1.994,0l1.332,1.332a1.41,1.41,0,0,1,0,1.991l-9.049,9.09,9.048,9.091a1.409,1.409,0,0,1,0,1.991l-1.332,1.332a1.41,1.41,0,0,1-1.994,0L2.346,16.471A1.41,1.41,0,0,1,2.346,14.478Z" transform="translate(13.636 -2.648)" fill="#ed1f24"/>
  <path id="Icon_awesome-chevron-left-3" data-name="Icon awesome-chevron-left" d="M2.346,14.478,13.763,3.061a1.41,1.41,0,0,1,1.994,0l1.332,1.332a1.41,1.41,0,0,1,0,1.991l-9.049,9.09,9.048,9.091a1.409,1.409,0,0,1,0,1.991l-1.332,1.332a1.41,1.41,0,0,1-1.994,0L2.346,16.471A1.41,1.41,0,0,1,2.346,14.478Z" transform="translate(29.204 -2.648)" fill="rgba(237,31,36,0.2)"/>
</svg>
