<svg xmlns="http://www.w3.org/2000/svg" width="13.501" height="13.501" viewBox="0 0 13.501 13.501">
  <path id="Icon_awesome-volume-mute" data-name="Icon awesome-volume-mute" d="M32.459,18l3.209-3.209a1.135,1.135,0,0,0,0-1.6l-1.6-1.6a1.135,1.135,0,0,0-1.6,0L29.25,14.791l-3.209-3.209a1.135,1.135,0,0,0-1.6,0l-1.6,1.6a1.135,1.135,0,0,0,0,1.6L26.041,18l-3.208,3.208a1.135,1.135,0,0,0,0,1.6l1.6,1.6a1.135,1.135,0,0,0,1.6,0l3.208-3.208,3.209,3.209a1.135,1.135,0,0,0,1.6,0l1.6-1.6a1.135,1.135,0,0,0,0-1.6Z" transform="translate(-22.5 -11.25)" fill="#fff"/>
</svg>
