<svg xmlns="http://www.w3.org/2000/svg" width="28.125" height="25" viewBox="0 0 28.125 25">
  <path id="Icon_metro-images" data-name="Icon metro-images" d="M29.134,8.268H27.571V6.705a1.567,1.567,0,0,0-1.562-1.563H4.134A1.567,1.567,0,0,0,2.571,6.705v18.75a1.567,1.567,0,0,0,1.563,1.562H5.7V28.58a1.567,1.567,0,0,0,1.563,1.563H29.134A1.567,1.567,0,0,0,30.7,28.58V9.83a1.567,1.567,0,0,0-1.562-1.562ZM5.7,9.83V25.455H4.137l0,0V6.708l0,0H26.006l0,0v1.56H7.259A1.567,1.567,0,0,0,5.7,9.83ZM29.134,28.578l0,0H7.262l0,0V9.833l0,0H29.131l0,0ZM26.009,13.737a2.344,2.344,0,1,1-2.344-2.344A2.344,2.344,0,0,1,26.009,13.737Zm1.563,13.281H8.821V23.893l5.469-9.375,6.25,7.813H22.1l5.469-4.687Z" transform="translate(-2.571 -5.143)" fill="#fff"/>
</svg>
