<svg xmlns="http://www.w3.org/2000/svg" width="20" height="20" viewBox="0 0 21.291 23">
  <path id="Icon_ionic-ios-search" data-name="Icon ionic-ios-search" d="M25.541,25.828,19.62,19.373a9.611,9.611,0,0,0,1.857-5.719c0-5.06-3.8-9.162-8.488-9.162S4.5,8.6,4.5,13.661s3.8,9.162,8.488,9.162a8.082,8.082,0,0,0,5.35-2.048l5.883,6.413a.876.876,0,0,0,.66.305.864.864,0,0,0,.627-.269A1.048,1.048,0,0,0,25.541,25.828ZM12.988,20.852a6.384,6.384,0,0,1-4.713-2.108,7.6,7.6,0,0,1,0-10.168,6.322,6.322,0,0,1,9.425,0,7.6,7.6,0,0,1,0,10.168A6.384,6.384,0,0,1,12.988,20.852Z" transform="translate(-4.5 -4.493)" fill="#a5a5a5"/>
</svg>
