<svg xmlns="http://www.w3.org/2000/svg" width="20" height="20" viewBox="0 0 25 27.007">
  <path id="Icon_ionic-ios-search" data-name="Icon ionic-ios-search" d="M29.207,29.545l-6.953-7.58a11.286,11.286,0,0,0,2.181-6.715c0-5.941-4.46-10.758-9.967-10.758S4.5,9.316,4.5,15.258s4.46,10.758,9.967,10.758a9.49,9.49,0,0,0,6.282-2.4l6.907,7.53a1.029,1.029,0,0,0,.775.359,1.015,1.015,0,0,0,.736-.316A1.23,1.23,0,0,0,29.207,29.545ZM14.467,23.7a7.5,7.5,0,0,1-5.534-2.475,8.921,8.921,0,0,1,0-11.939A7.424,7.424,0,0,1,20,9.288a8.921,8.921,0,0,1,0,11.939A7.5,7.5,0,0,1,14.467,23.7Z" transform="translate(-4.5 -4.493)" fill="#fc3b3c"/>
</svg>
