<?xml version="1.0" encoding="utf-8"?>
<!-- Generator: Adobe Illustrator 26.0.1, SVG Export Plug-In . SVG Version: 6.00 Build 0)  -->
<svg version="1.1" id="Mode_Isolation" xmlns="http://www.w3.org/2000/svg" xmlns:xlink="http://www.w3.org/1999/xlink" x="0px"
	 y="0px" viewBox="0 0 14.23 14.71" style="enable-background:new 0 0 14.23 14.71;" xml:space="preserve">
<style type="text/css">
	.st0{fill:#002A91;}
	.st1{opacity:0.7;}
	.st2{fill:#00B2C4;}
</style>
<g>
	<g>
		<g>
			<path class="st0" d="M8.31,1.68c-1.48,0-2.7,0.29-3.67,0.86C3.67,3.12,3.05,4.12,2.77,5.55C2.72,5.87,2.74,6.24,2.8,6.66
				C2.87,7.07,3,7.3,3.19,7.35l0.56-0.41C4.17,6.8,4.57,6.73,4.94,6.73c0.89,0,1.68,0.3,2.39,0.89C8.03,8.22,8.38,9,8.38,9.96
				c0,1.24-0.34,2.25-1.01,3.05c-0.68,0.8-1.69,1.2-3.04,1.2c-1.26,0-2.29-0.5-3.11-1.49C0.41,11.73,0,10.43,0,8.81
				C0,3.27,2.77,0.5,8.31,0.5V1.68z"/>
		</g>
	</g>
	<g>
		<g class="st1">
			<path class="st2" d="M9.68,14.71c-1.41,0-2.58-0.56-3.49-1.67c-0.89-1.08-1.33-2.5-1.33-4.23C4.85,2.96,7.81,0,13.66,0
				c0.28,0,0.5,0.22,0.5,0.5v1.18c0,0.28-0.22,0.5-0.5,0.5c-1.38,0-2.53,0.27-3.42,0.79c-0.85,0.5-1.38,1.38-1.63,2.68
				C8.57,5.89,8.58,6.21,8.64,6.58c0,0.02,0.01,0.04,0.01,0.06l0.14-0.1C8.84,6.5,8.89,6.48,8.94,6.46
				c1.59-0.51,2.93-0.17,4.06,0.78c0.82,0.69,1.23,1.61,1.23,2.71c0,1.35-0.38,2.49-1.13,3.38C12.33,14.25,11.17,14.71,9.68,14.71z
				 M13.16,1.01c-4.92,0.16-7.31,2.72-7.31,7.8c0,1.49,0.37,2.7,1.11,3.6c0.72,0.88,1.61,1.31,2.72,1.31c1.21,0,2.08-0.33,2.65-1.02
				c0.6-0.71,0.9-1.61,0.9-2.73c0-0.81-0.29-1.45-0.88-1.95c-0.85-0.72-1.79-0.99-3.03-0.62l-0.5,0.36
				C8.71,7.84,8.55,7.87,8.41,7.84C7.82,7.69,7.7,6.98,7.66,6.74C7.58,6.28,7.57,5.85,7.62,5.48c0.31-1.59,1.02-2.72,2.11-3.37
				c0.93-0.55,2.08-0.86,3.43-0.92V1.01z"/>
		</g>
	</g>
</g>
</svg>
