<svg xmlns="http://www.w3.org/2000/svg" width="22.714" height="18.461" viewBox="0 0 22.714 18.461">
  <path id="Icon_simple-twitter" data-name="Icon simple-twitter" d="M22.67,5.567A9.464,9.464,0,0,1,20,6.3a4.692,4.692,0,0,0,2.047-2.577,9.618,9.618,0,0,1-2.959,1.121,4.655,4.655,0,0,0-8.055,3.178,4.765,4.765,0,0,0,.12,1.064,13.188,13.188,0,0,1-9.6-4.851,4.563,4.563,0,0,0-.63,2.342,4.657,4.657,0,0,0,2.071,3.876A4.641,4.641,0,0,1,.884,9.871v.058A4.659,4.659,0,0,0,4.618,14.5a4.7,4.7,0,0,1-2.093.08,4.672,4.672,0,0,0,4.357,3.234A9.339,9.339,0,0,1,1.107,19.8,9.884,9.884,0,0,1,0,19.74,13.245,13.245,0,0,0,7.152,21.83,13.152,13.152,0,0,0,20.4,8.594c0-.2,0-.4-.014-.6a9.4,9.4,0,0,0,2.328-2.411l-.044-.019Z" transform="translate(0 -3.369)" fill="#d6dcdf"/>
</svg>
