<svg xmlns="http://www.w3.org/2000/svg" xmlns:xlink="http://www.w3.org/1999/xlink" width="18" height="18" viewBox="0 0 19.19 19.19">
  <defs>
    <linearGradient id="linear-gradient" y1="1" x2="1" gradientUnits="objectBoundingBox">
      <stop offset="0" stop-color="#f58529"/>
      <stop offset="0.281" stop-color="#feda77"/>
      <stop offset="0.532" stop-color="#dd2a7b"/>
      <stop offset="0.783" stop-color="#8134af"/>
      <stop offset="1" stop-color="#515bd4"/>
    </linearGradient>
  </defs>
  <path id="Icon_simple-instagram" data-name="Icon simple-instagram" d="M9.6,0C6.988,0,6.663.012,5.639.058A7.075,7.075,0,0,0,3.31.5,4.7,4.7,0,0,0,1.61,1.61,4.682,4.682,0,0,0,.5,3.31,7.054,7.054,0,0,0,.058,5.639C.01,6.663,0,6.988,0,9.6s.012,2.932.058,3.956A7.08,7.08,0,0,0,.5,15.88a4.705,4.705,0,0,0,1.107,1.7,4.692,4.692,0,0,0,1.7,1.107,7.084,7.084,0,0,0,2.329.446c1.023.048,1.349.058,3.956.058s2.932-.012,3.956-.058a7.1,7.1,0,0,0,2.329-.446,4.9,4.9,0,0,0,2.807-2.807,7.08,7.08,0,0,0,.446-2.329c.048-1.023.058-1.349.058-3.956s-.012-2.932-.058-3.956a7.1,7.1,0,0,0-.446-2.329,4.709,4.709,0,0,0-1.107-1.7A4.675,4.675,0,0,0,15.88.5,7.059,7.059,0,0,0,13.551.058C12.527.01,12.2,0,9.6,0Zm0,1.727c2.561,0,2.867.013,3.878.057a5.286,5.286,0,0,1,1.781.332,3.158,3.158,0,0,1,1.821,1.821,5.3,5.3,0,0,1,.33,1.781c.046,1.012.056,1.316.056,3.878s-.012,2.867-.059,3.878a5.4,5.4,0,0,1-.337,1.781,3.047,3.047,0,0,1-.719,1.105,2.993,2.993,0,0,1-1.1.716,5.337,5.337,0,0,1-1.787.33c-1.019.046-1.319.056-3.885.056S6.7,17.449,5.686,17.4A5.441,5.441,0,0,1,3.9,17.066a2.971,2.971,0,0,1-1.1-.719,2.913,2.913,0,0,1-.72-1.1,5.445,5.445,0,0,1-.336-1.787c-.036-1.007-.049-1.319-.049-3.873S1.7,6.716,1.74,5.7A5.439,5.439,0,0,1,2.076,3.91a2.844,2.844,0,0,1,.72-1.1,2.838,2.838,0,0,1,1.1-.718,5.311,5.311,0,0,1,1.776-.337C6.693,1.715,6.993,1.7,9.559,1.7l.036.024Zm0,2.941A4.927,4.927,0,1,0,14.522,9.6,4.927,4.927,0,0,0,9.6,4.668Zm0,8.125a3.2,3.2,0,1,1,3.2-3.2A3.2,3.2,0,0,1,9.6,12.793Zm6.274-8.32a1.151,1.151,0,1,1-1.151-1.151A1.152,1.152,0,0,1,15.869,4.474Z" fill="#ededf1"/>
</svg>
