<svg xmlns="http://www.w3.org/2000/svg" width="20" height="20" viewBox="0 0 23.611 19.19">
  <path id="Icon_simple-twitter" data-name="Icon simple-twitter" d="M23.565,5.654a9.838,9.838,0,0,1-2.779.762,4.878,4.878,0,0,0,2.128-2.679A10,10,0,0,1,19.837,4.9a4.839,4.839,0,0,0-8.373,3.3,4.953,4.953,0,0,0,.125,1.106A13.708,13.708,0,0,1,1.613,4.269,4.744,4.744,0,0,0,.958,6.7a4.841,4.841,0,0,0,2.152,4.029,4.825,4.825,0,0,1-2.192-.606v.06A4.843,4.843,0,0,0,4.8,14.936a4.885,4.885,0,0,1-2.176.084,4.856,4.856,0,0,0,4.529,3.361,9.708,9.708,0,0,1-6,2.071A10.273,10.273,0,0,1,0,20.386a13.768,13.768,0,0,0,7.434,2.173A13.672,13.672,0,0,0,21.206,8.8c0-.206,0-.413-.015-.62a9.774,9.774,0,0,0,2.42-2.507l-.046-.02Z" transform="translate(0 -3.369)" fill="#00acee"/>
</svg>
