<svg xmlns="http://www.w3.org/2000/svg" width="20" height="20" viewBox="0 0 27.458 19.19">
  <path id="Icon_simple-youtube" data-name="Icon simple-youtube" d="M26.892,8.387A3.442,3.442,0,0,0,24.5,6c-2.14-.573-10.754-.573-10.754-.573S5.157,5.413,2.995,6A3.442,3.442,0,0,0,.6,8.387a35.763,35.763,0,0,0-.6,6.644A35.762,35.762,0,0,0,.6,21.65a3.442,3.442,0,0,0,2.39,2.39c2.138.575,10.754.575,10.754.575s8.591,0,10.754-.575a3.442,3.442,0,0,0,2.39-2.39,35.763,35.763,0,0,0,.572-6.619,35.762,35.762,0,0,0-.572-6.644ZM11,19.141V10.908l7.169,4.123Z" transform="translate(-0.007 -5.424)" fill="#ededf1"/>
</svg>
