<svg id="Layer_2" data-name="Layer 2" xmlns="http://www.w3.org/2000/svg" width="72.445" height="48.322" viewBox="0 0 117.634 78.464">
  <g id="Layer_1" data-name="Layer 1">
    <path id="Path_29" data-name="Path 29" d="M11.528,110.531V131.3a27.815,27.815,0,0,1-1.779,12.278H0a24.806,24.806,0,0,0,2.964-12.266h0V116.659c2.87-2.107,5.711-4.165,8.564-6.149Z" transform="translate(0 -65.207)" fill="#fff" fill-rule="evenodd"/>
    <path id="Path_30" data-name="Path 30" d="M15.794,70.28V83.829c-2.87,2.251-5.739,4.6-8.564,6.969V70.28Z" transform="translate(-4.266 -41.469)" fill="#fff" fill-rule="evenodd" opacity="0.8"/>
    <path id="Path_31" data-name="Path 31" d="M133.618,121.287v15.221a27.815,27.815,0,0,1-1.779,12.278H122.09a24.806,24.806,0,0,0,2.964-12.266h0V119.34c2.685.713,5.571,1.361,8.564,1.947Z" transform="translate(-72.04 -70.417)" fill="#fff" fill-rule="evenodd"/>
    <path id="Path_32" data-name="Path 32" d="M137.884,70.28V88.67a68.837,68.837,0,0,1-8.564-3.349V70.28Z" transform="translate(-76.306 -41.469)" fill="#fff" fill-rule="evenodd" opacity="0.8"/>
    <path id="Path_33" data-name="Path 33" d="M268.86,5.514V2.468h5.764V0H266.06V8.56h8.564V5.514Z" transform="translate(-156.989)" fill="#fff" fill-rule="evenodd" opacity="0.8"/>
    <path id="Path_34" data-name="Path 34" d="M70,92.433V118.69H61.44V90.248a6.675,6.675,0,0,1,4.432-.082A25.646,25.646,0,0,1,70,92.433Z" transform="translate(-36.253 -53)" fill="#fff" fill-rule="evenodd"/>
    <path id="Path_35" data-name="Path 35" d="M70,70.28v6.444a15.554,15.554,0,0,0-8.564-1.062V70.28Z" transform="translate(-36.253 -41.469)" fill="#fff" fill-rule="evenodd" opacity="0.8"/>
    <path id="Path_36" data-name="Path 36" d="M42.294,93.61v27.315H33.73V98.993q1.119-.75,2.23-1.476A55.451,55.451,0,0,1,42.294,93.61Z" transform="translate(-19.902 -55.235)" fill="#fff" fill-rule="evenodd"/>
    <path id="Path_37" data-name="Path 37" d="M42.294,70.28v6.194c-3.124,1.234-5.8,3.419-8.564,5.579V70.28Z" transform="translate(-19.902 -41.469)" fill="#fff" fill-rule="evenodd" opacity="0.8"/>
    <path id="Path_38" data-name="Path 38" d="M102.944,55.575V23.89H94.38V51.672c2.763,1.369,4.579,2.3,8.564,3.9Z" transform="translate(-55.689 -14.096)" fill="#fff" fill-rule="evenodd" opacity="0.8"/>
    <path id="Path_39" data-name="Path 39" d="M94.38,127.676h8.564V108.753a38.067,38.067,0,0,1-8.564-4.4Z" transform="translate(-55.689 -61.572)" fill="#fff" fill-rule="evenodd"/>
    <path id="Path_40" data-name="Path 40" d="M274.424,68.414V23.73H265.86V68.115q4.292.2,8.564.3Z" transform="translate(-156.871 -14.002)" fill="#fff" fill-rule="evenodd" opacity="0.8"/>
    <path id="Path_41" data-name="Path 41" d="M265.86,145.564h8.564v-10.7q-4.272.033-8.564-.025Z" transform="translate(-156.871 -79.563)" fill="#fff" fill-rule="evenodd"/>
    <path id="Path_42" data-name="Path 42" d="M164.254,88.831V67.87a36.809,36.809,0,0,1,34.739,25.88c-3.345-.221-6.67-.5-9.954-.82A26.347,26.347,0,0,0,172.974,78.9V90.692c-3-.549-5.911-1.168-8.724-1.861Z" transform="translate(-96.916 -40.047)" fill="#fff" fill-rule="evenodd" opacity="0.8"/>
    <path id="Path_43" data-name="Path 43" d="M164.236,141.057V126.61c2.894.476,5.825.894,8.724,1.259v3.989h17.628q-.332-1.23-.775-2.4,4.8.283,9.589.41A37.133,37.133,0,0,1,198,153.17H187.694a22.855,22.855,0,0,0,3.28-12.192l-26.753.082Z" transform="translate(-96.898 -74.707)" fill="#fff" fill-rule="evenodd"/>
  </g>
</svg>
