<?xml version="1.0" encoding="utf-8"?>
<!-- Generator: Adobe Illustrator 26.5.0, SVG Export Plug-In . SVG Version: 6.00 Build 0)  -->
<svg version="1.1" id="Calque_1" xmlns="http://www.w3.org/2000/svg" xmlns:xlink="http://www.w3.org/1999/xlink" x="0px" y="0px"
	 viewBox="0 0 841.89 595.28" style="enable-background:new 0 0 841.89 595.28;" xml:space="preserve">
<style type="text/css">
	.st0{fill:#FFFFFF;}
	.st1{fill:#878787;}
</style>
<g>
	<path class="st0" d="M465.48,380.91H376.4c-21.39,0-38.72-17.34-38.72-38.72V214.37h127.91c21.33,0,38.63,17.29,38.63,38.63v89.19
		C504.21,363.57,486.88,380.91,465.48,380.91"/>
	<path d="M339.45,216.14v126.04c0,20.41,16.54,36.95,36.95,36.95h89.09c20.41,0,36.95-16.54,36.95-36.95v-89.09
		c0-20.41-16.54-36.95-36.95-36.95H339.45z M465.48,382.68H376.4c-22.36,0-40.49-18.13-40.49-40.49V212.6h131.45
		c21.33,0,38.63,17.29,38.63,38.63v90.96C505.98,364.55,487.85,382.68,465.48,382.68"/>
	<path class="st1" d="M471.28,231.48c-4.4,0-8.12,1.55-11.17,4.65c-3.15,3.1-4.73,6.82-4.73,11.17c0,4.45,1.58,8.2,4.73,11.25
		c3.05,3.1,6.77,4.65,11.17,4.65c4.35,0,8.1-1.55,11.25-4.65c3.05-3.1,4.58-6.85,4.58-11.25c0-4.35-1.53-8.07-4.58-11.17
		C479.38,233.03,475.62,231.48,471.28,231.48"/>
	<path class="st1" d="M436.3,231.48c-4.4,0-8.12,1.55-11.17,4.65c-3.15,3.1-4.73,6.82-4.73,11.17c0,4.45,1.58,8.2,4.73,11.25
		c3.05,3.1,6.77,4.65,11.17,4.65c4.35,0,8.1-1.55,11.25-4.65c3.05-3.1,4.58-6.85,4.58-11.25c0-4.35-1.53-8.07-4.58-11.17
		C444.41,233.03,440.66,231.48,436.3,231.48"/>
	<path class="st1" d="M393.92,247.29v-15.81h-39.14v15.86h38.63C393.72,247.3,393.92,247.29,393.92,247.29"/>
	<path d="M452.22,271.7v39.09c0,6.48-0.46,10.71-1.38,12.71c-0.97,3.45-4.86,5.21-11.65,5.26h-3.84v0.01c-5.06,0-10,2.1-14.23,6.04
		l0,0c-4.22-3.94-9.17-6.04-14.23-6.04v-0.01h-4.21c-6.8-0.05-10.68-1.81-11.65-5.26c-0.86-1.99-1.29-6.23-1.29-12.71v-4.2h22.7
		V271.7h-22.7v-20.23c0-3.24,2.56-3.96,3.67-4.13h-38.63v79.55c0,3.29,0.08,5.69,0.24,7.2c0.22,2.16,0.51,4.05,0.89,5.67
		c0.32,1.67,0.78,3.21,1.38,4.61c0.7,1.67,1.4,3.05,2.1,4.13c3.02,4.75,6.99,8.39,11.9,10.93c4.96,2.64,10.55,3.97,16.75,3.97h13.03
		h6.63h46.13c6.2,0,11.79-1.32,16.75-3.97c4.91-2.54,8.87-6.18,11.9-10.93c0.7-1.08,1.4-2.45,2.1-4.13c0.59-1.4,1.08-2.94,1.46-4.61
		c0.38-1.67,0.65-3.56,0.81-5.67c0.16-1.51,0.24-3.91,0.24-7.2V271.7H452.22z"/>
</g>
</svg>
