<?xml version="1.0" encoding="utf-8"?>
<!-- Generator: Adobe Illustrator 26.4.1, SVG Export Plug-In . SVG Version: 6.00 Build 0)  -->
<svg version="1.1" id="Calque_1" xmlns="http://www.w3.org/2000/svg" xmlns:xlink="http://www.w3.org/1999/xlink" x="0px" y="0px"
	 viewBox="0 0 200 200" style="enable-background:new 0 0 200 200;" xml:space="preserve">
<style type="text/css">
	.st0{fill:#FFFFFF;}
	.st1{fill:#002E5F;}
	.st2{fill:#31B7BC;}
</style>
<g>
	<path class="st0" d="M152.38,197.92H47.62c-25.15,0-45.53-20.39-45.53-45.53V2.08h150.41c25.09,0,45.42,20.34,45.42,45.42v104.88
		C197.92,177.53,177.53,197.92,152.38,197.92"/>
	<path class="st1" d="M4.17,4.17v148.22c0,24,19.45,43.45,43.45,43.45h104.77c24,0,43.45-19.45,43.45-43.45V47.62
		c0-24-19.45-43.45-43.45-43.45H4.17z M152.38,200H47.62C21.32,200,0,178.68,0,152.38V0h154.58C179.66,0,200,20.34,200,45.42v106.96
		C200,178.68,178.68,200,152.38,200"/>
	<path class="st2" d="M159.19,22.2c-5.17,0-9.55,1.82-13.14,5.47c-3.7,3.65-5.56,8.02-5.56,13.14c0,5.23,1.85,9.64,5.56,13.23
		c3.59,3.65,7.97,5.47,13.14,5.47c5.11,0,9.53-1.82,13.23-5.47c3.58-3.64,5.38-8.05,5.38-13.23c0-5.11-1.8-9.49-5.38-13.14
		C168.72,24.02,164.31,22.2,159.19,22.2"/>
	<path class="st2" d="M118.07,22.2c-5.17,0-9.55,1.82-13.14,5.47c-3.7,3.65-5.56,8.02-5.56,13.14c0,5.23,1.85,9.64,5.56,13.23
		c3.59,3.65,7.97,5.47,13.14,5.47c5.11,0,9.53-1.82,13.23-5.47c3.58-3.64,5.38-8.05,5.38-13.23c0-5.11-1.8-9.49-5.38-13.14
		C127.6,24.02,123.18,22.2,118.07,22.2"/>
	<path class="st2" d="M68.22,40.79V22.2H22.2v18.65h45.43C67.99,40.8,68.22,40.79,68.22,40.79"/>
	<path class="st1" d="M136.78,69.5v45.97c0,7.61-0.54,12.6-1.62,14.94c-1.14,4.06-5.71,6.12-13.7,6.19h-4.51v0.01
		c-5.95,0-11.76,2.47-16.73,7.1h0c-4.97-4.63-10.78-7.1-16.73-7.1v-0.01h-4.95c-7.99-0.06-12.56-2.12-13.7-6.19
		c-1.02-2.35-1.52-7.33-1.52-14.94v-4.94H90V69.5H63.31V45.71c0-3.81,3.01-4.66,4.32-4.85H22.2v93.55c0,3.87,0.09,6.69,0.29,8.47
		c0.25,2.54,0.6,4.76,1.05,6.66c0.38,1.97,0.92,3.78,1.62,5.42c0.82,1.97,1.65,3.59,2.47,4.85c3.55,5.58,8.22,9.87,13.99,12.85
		c5.84,3.11,12.4,4.66,19.7,4.66h15.32h7.8h54.25c7.29,0,13.86-1.55,19.7-4.66c5.77-2.98,10.43-7.27,13.99-12.85
		c0.82-1.27,1.65-2.89,2.47-4.85c0.7-1.65,1.27-3.46,1.71-5.42c0.44-1.97,0.76-4.19,0.95-6.66c0.19-1.77,0.29-4.6,0.29-8.47V69.5
		H136.78z"/>
</g>
</svg>
