<?xml version="1.0" encoding="utf-8"?>
<!-- Generator: Adobe Illustrator 26.4.1, SVG Export Plug-In . SVG Version: 6.00 Build 0)  -->
<svg version="1.1" id="Calque_1" xmlns="http://www.w3.org/2000/svg" xmlns:xlink="http://www.w3.org/1999/xlink" x="0px" y="0px"
	 viewBox="0 0 595 206" style="enable-background:new 0 0 595 206;" xml:space="preserve">
<style type="text/css">
	.st0{fill:#002E5F;}
	.st1{fill:#FFFFFF;}
	.st2{fill:#31B7BC;}
</style>
<g>
	<g>
		<g>
			<path class="st0" d="M50.6,204.5c-27.1,0-49.1-22-49.1-49.1V1.5h542.9c27.1,0,49.1,22,49.1,49.1v104.8c0,27.1-22,49.1-49.1,49.1
				H50.6z"/>
			<path class="st1" d="M544.4,3C570.6,3,592,24.4,592,50.6v104.8c0,26.3-21.4,47.6-47.6,47.6h-78.9h-25.8h-389
				C24.4,203,3,181.6,3,155.4V3h389h73.4H544.4 M544.4,0h-78.9H392H3H0v3v152.4C0,183.3,22.7,206,50.6,206h389h25.8h78.9
				c27.9,0,50.6-22.7,50.6-50.6V50.6C595,22.7,572.3,0,544.4,0L544.4,0z"/>
		</g>
		<path class="st1" d="M396.2,7.2v148.2c0,24,19.5,43.4,43.5,43.4h104.8c24,0,43.5-19.5,43.5-43.4V50.6c0-24-19.5-43.5-43.5-43.5
			C544.4,7.2,396.2,7.2,396.2,7.2z"/>
		<path class="st2" d="M551.2,25.2c-5.2,0-9.5,1.8-13.1,5.5c-3.7,3.6-5.6,8-5.6,13.1c0,5.2,1.8,9.6,5.6,13.2c3.6,3.7,8,5.5,13.1,5.5
			c5.1,0,9.5-1.8,13.2-5.5c3.6-3.6,5.4-8,5.4-13.2c0-5.1-1.8-9.5-5.4-13.1C560.7,27,556.3,25.2,551.2,25.2"/>
		<path class="st2" d="M510.1,25.2c-5.2,0-9.5,1.8-13.1,5.5c-3.7,3.6-5.6,8-5.6,13.1c0,5.2,1.9,9.6,5.6,13.2c3.6,3.7,8,5.5,13.1,5.5
			c5.1,0,9.5-1.8,13.2-5.5c3.6-3.6,5.4-8,5.4-13.2c0-5.1-1.8-9.5-5.4-13.1C519.6,27,515.2,25.2,510.1,25.2"/>
		<path class="st2" d="M460.2,43.8V25.2h-46v18.6h45.4C460,43.8,460.2,43.8,460.2,43.8"/>
		<path class="st0" d="M528.8,72.5v46c0,7.6-0.5,12.6-1.6,14.9c-1.1,4.1-5.7,6.1-13.7,6.2H509v0c-5.9,0-11.8,2.5-16.7,7.1
			c-5-4.6-10.8-7.1-16.7-7.1v0h-5c-8-0.1-12.6-2.1-13.7-6.2c-1-2.4-1.5-7.3-1.5-14.9v-4.9H482v-41h-26.7V48.7c0-3.8,3-4.7,4.3-4.8
			h-45.4v93.6c0,3.9,0.1,6.7,0.3,8.5c0.2,2.5,0.6,4.8,1,6.7c0.4,2,0.9,3.8,1.6,5.4c0.8,2,1.6,3.6,2.5,4.9c3.5,5.6,8.2,9.9,14,12.9
			c5.8,3.1,12.4,4.7,19.7,4.7h15.3h7.8h54.2c7.3,0,13.9-1.6,19.7-4.7c5.8-3,10.4-7.3,14-12.9c0.8-1.3,1.7-2.9,2.5-4.9
			c0.7-1.6,1.3-3.5,1.7-5.4c0.4-2,0.8-4.2,1-6.7c0.2-1.8,0.3-4.6,0.3-8.5V72.5H528.8z"/>
		<path class="st1" d="M274.3,83.7v-7.8c0-7.8-3.5-11.8-10.5-11.8c-3.5,0-6.1,0.9-7.8,2.8l-12.8-12.8c2-2.5,4.2-4.5,6.7-6.1
			c4-2.5,8.6-3.7,13.8-3.7c5.3,0,9.9,1.2,13.9,3.7c4,2.5,7.3,6.1,9.8,10.9c1.2,2.3,2,5.2,2.6,8.6c0.4,2.8,0.7,14.7,0.8,35.5h-47.4
			V83.7H274.3z"/>
	</g>
	<polygon class="st1" points="233.1,103 233.1,45.2 234.4,45.2 234.4,29.6 213.7,29.6 213.7,103 	"/>
	<g>
		<path class="st1" d="M365.4,46.8c2.4,0,4.4-0.8,6.1-2.5c1.6-1.7,2.5-3.7,2.5-6.1c0-2.4-0.8-4.4-2.5-6.1c-1.7-1.7-3.8-2.5-6.1-2.5
			c-2.4,0-4.4,0.8-6.1,2.5c-1.7,1.7-2.6,3.7-2.6,6.1c0,2.4,0.9,4.5,2.6,6.1C361,46,363,46.8,365.4,46.8"/>
		<path class="st1" d="M345.5,46.8c2.4,0,4.4-0.8,6.1-2.5c1.6-1.7,2.5-3.7,2.5-6.1c0-2.4-0.8-4.4-2.5-6.1c-1.7-1.7-3.7-2.5-6.1-2.5
			c-2.4,0-4.4,0.8-6.1,2.5c-1.7,1.7-2.5,3.7-2.5,6.1c0,2.4,0.8,4.5,2.5,6.1C341.1,46,343.1,46.8,345.5,46.8"/>
		<path class="st1" d="M354.5,52v21.8c0,3.6-0.3,6-0.8,7.1c-0.5,1.9-2.7,2.9-6.5,2.9h-17.5H327c-3.8,0-6-1-6.5-2.9
			c-0.5-1.1-0.7-3.5-0.7-7.1V45.2h1.2V29.6h-20.7v53.1c0,1.8,0,3.2,0.1,4c0.1,1.2,0.3,2.2,0.5,3.2c0.2,0.9,0.4,1.8,0.8,2.6
			c0.4,0.9,0.8,1.7,1.2,2.3c1.7,2.6,3.9,4.7,6.6,6.1c2.8,1.5,5.9,2.2,9.3,2.2h7.3h3.7h25.7c3.5,0,6.6-0.7,9.3-2.2
			c2.7-1.4,4.9-3.4,6.6-6.1c0.4-0.6,0.8-1.4,1.2-2.3c0.3-0.8,0.6-1.6,0.8-2.6s0.4-2,0.5-3.2c0.1-0.8,0.1-2.2,0.1-4V52H354.5z"/>
		<path class="st2" d="M257.1,171.2c3.7-0.7,5.8-2.7,6.2-5.9l-0.1-35.2l12.6,0v22.6l-0.3,12.6c-0.3,7.5-4.7,12.6-13.1,15.1
			L257.1,171.2z"/>
		<path class="st2" d="M269.5,111.7c-1.7,0-3.2,0.6-4.4,1.8c-1.2,1.2-1.8,2.7-1.8,4.4c0,1.7,0.6,3.2,1.8,4.4
			c1.2,1.2,2.6,1.8,4.4,1.8s3.2-0.6,4.4-1.8c1.2-1.2,1.8-2.7,1.8-4.4c0-1.7-0.6-3.2-1.8-4.4C272.7,112.3,271.2,111.7,269.5,111.7"/>
		<path class="st1" d="M189,88.6c-1.6,1.9-3.9,2.8-6.6,2.8c-2.7,0-4.9-0.9-6.6-2.8c-1.7-1.9-2.5-4.3-2.5-7.4c0-3.1,0.8-5.6,2.5-7.5
			s3.9-2.8,6.6-2.8c2.7,0,4.9,0.9,6.6,2.8c1.6,1.9,2.5,4.4,2.5,7.5S190.6,86.8,189,88.6 M182.4,58.7c-12.4,0-22.4,10.4-22.4,23.1
			c0,0.7,0,1.3,0.1,1.9h-17.1V67.9h-19.3v15.9h-2.4c-3.5,0-6.3-2.8-6.3-6.3V59.9H95.6v23.8h-2.4c-3.5,0-6.3-2.8-6.3-6.3V52H67.3
			v31.8H52.3h-2h-0.8c-3.8,0-6-1-6.5-2.9c-0.5-1.1-0.7-3.5-0.7-7.1V45.2h1.2V29.6H22.8v53.1c0,1.8,0,3.2,0.1,4
			c0.1,1.2,0.3,2.2,0.5,3.2c0.2,0.9,0.4,1.8,0.8,2.6c0.4,0.9,0.8,1.7,1.2,2.3c1.7,2.6,3.9,4.7,6.6,6.1c2.8,1.5,5.9,2.2,9.3,2.2h7.5
			h3.4h121.1c2.8,1.2,5.8,1.9,9,1.9c12.4,0,22.4-10.4,22.4-23.1C204.8,69.1,194.7,58.7,182.4,58.7"/>
		<path class="st2" d="M329.3,167.4c-1.7,0-3.2,0.6-4.4,1.8c-1.2,1.2-1.8,2.7-1.8,4.4s0.6,3.2,1.8,4.4c1.2,1.2,2.6,1.8,4.4,1.8
			s3.2-0.6,4.4-1.8c1.2-1.2,1.8-2.7,1.8-4.4c0-1.7-0.6-3.2-1.8-4.4C332.5,168,331,167.4,329.3,167.4"/>
		<path class="st2" d="M345.2,167.4c-1.7,0-3.2,0.6-4.4,1.8c-1.2,1.2-1.9,2.7-1.9,4.4s0.6,3.2,1.9,4.4c1.2,1.2,2.6,1.8,4.4,1.8
			c1.7,0,3.2-0.6,4.4-1.8c1.2-1.2,1.8-2.7,1.8-4.4c0-1.7-0.6-3.2-1.8-4.4C348.4,168,346.9,167.4,345.2,167.4"/>
		<path class="st2" d="M294.1,140.4c1.3-1.2,3-1.9,5.1-1.9c2.1,0,3.7,0.6,4.9,1.8l0.1,0.1v12.2l-8.9,0c-2.1-2.2-3.2-4.6-3.2-7.2
			C292.2,143.4,292.9,141.7,294.1,140.4 M361.3,132v14.2c0,2.4-0.2,3.9-0.5,4.6c-0.4,1.2-1.8,1.9-4.2,1.9h-1.1h-2.4h-1.2V132h-12.6
			v14.2c0,2.4-0.2,3.9-0.5,4.6c-0.4,1.2-1.8,1.9-4.2,1.9h-11.4h-2.4h-3.9l0-14.2c-0.3-1.1-0.8-2.2-1.4-3.4c-1.8-3.2-4.1-5.5-6.8-7.1
			c-2.7-1.6-5.9-2.3-9.5-2.3c-2.7,0-5.2,0.4-7.3,1.3c-2.2,0.9-4.2,2.2-5.9,4c-1.8,1.7-3.1,3.8-4,6s-1.3,4.8-1.3,7.5
			c0,3,0.6,5.7,1.8,8.3h0.1l1.8,3.9l0,0l2.5,5.5c0,0,0,0,0,0l1.4,3.1h16c0,0.1,0,0.1,0,0.2c-0.4,3.8-4.7,6.4-9.6,5.9
			c-1.5-0.2-3-0.6-4.1-1.3l4.9,10.4c1.2,0.2,2.4,0.3,3.6,0.3c9.7,0,17.5-7,17.5-15.6h4.1h2.4h30h2.4h6.4c2.2,0,4.3-0.5,6.1-1.4
			c1.8-0.9,3.2-2.2,4.3-4c0.2-0.4,0.5-0.9,0.8-1.5c0.2-0.5,0.4-1.1,0.5-1.7c0.1-0.6,0.2-1.3,0.3-2.1c0.1-0.6,0.1-1.4,0.1-2.6v-20
			L361.3,132L361.3,132z"/>
		<path class="st2" d="M367.3,126.9c1.7,0,3.2-0.6,4.4-1.8c1.2-1.2,1.8-2.7,1.8-4.4c0-1.7-0.6-3.2-1.8-4.4c-1.2-1.2-2.7-1.8-4.4-1.8
			c-1.7,0-3.2,0.6-4.4,1.8s-1.8,2.7-1.8,4.4c0,1.7,0.6,3.2,1.8,4.4C364.1,126.3,365.5,126.9,367.3,126.9"/>
	</g>
</g>
</svg>
