<?xml version="1.0" encoding="utf-8"?>
<!-- Generator: Adobe Illustrator 26.4.1, SVG Export Plug-In . SVG Version: 6.00 Build 0)  -->
<svg version="1.1" id="Calque_1" xmlns="http://www.w3.org/2000/svg" xmlns:xlink="http://www.w3.org/1999/xlink" x="0px" y="0px"
	 viewBox="0 0 589 200" style="enable-background:new 0 0 589 200;" xml:space="preserve">
<style type="text/css">
	.st0{fill:#002E5F;}
	.st1{fill:#FFFFFF;}
	.st2{fill:#31B7BC;}
</style>
<g>
	<g>
		<path class="st0" d="M541.38,0h-78.94H389H0v152.38C0,178.64,21.36,200,47.62,200h389h25.82h78.94
			c26.25,0,47.62-21.36,47.62-47.62V47.62C589,21.36,567.64,0,541.38,0"/>
		<path class="st1" d="M393.17,4.17v148.22c0,23.96,19.49,43.45,43.45,43.45h104.77c23.96,0,43.45-19.49,43.45-43.45V47.62
			c0-23.96-19.49-43.45-43.45-43.45H393.17z"/>
		<path class="st2" d="M548.19,22.2c-5.17,0-9.55,1.82-13.14,5.47c-3.7,3.64-5.56,8.02-5.56,13.14c0,5.23,1.85,9.64,5.56,13.23
			c3.58,3.65,7.97,5.47,13.14,5.47c5.12,0,9.53-1.82,13.23-5.47c3.59-3.64,5.38-8.05,5.38-13.23c0-5.12-1.79-9.49-5.38-13.14
			C557.72,24.02,553.31,22.2,548.19,22.2"/>
		<path class="st2" d="M507.07,22.2c-5.17,0-9.55,1.82-13.14,5.47c-3.7,3.64-5.56,8.02-5.56,13.14c0,5.23,1.85,9.64,5.56,13.23
			c3.58,3.65,7.97,5.47,13.14,5.47c5.12,0,9.53-1.82,13.23-5.47c3.58-3.64,5.38-8.05,5.38-13.23c0-5.12-1.8-9.49-5.38-13.14
			C516.59,24.02,512.18,22.2,507.07,22.2"/>
		<path class="st2" d="M457.22,40.79V22.2H411.2v18.65h45.43C456.99,40.8,457.22,40.79,457.22,40.79"/>
		<path class="st0" d="M525.78,69.5v45.97c0,7.62-0.54,12.6-1.62,14.94c-1.14,4.06-5.71,6.12-13.7,6.19h-4.51v0.01
			c-5.94,0-11.76,2.47-16.73,7.1c-4.97-4.63-10.78-7.1-16.73-7.1v-0.01h-4.95c-7.99-0.06-12.56-2.12-13.7-6.19
			c-1.02-2.35-1.52-7.33-1.52-14.94v-4.94H479V69.5h-26.69V45.71c0-3.81,3.01-4.66,4.32-4.85H411.2v93.55
			c0,3.87,0.09,6.69,0.28,8.47c0.25,2.54,0.6,4.76,1.05,6.66c0.38,1.97,0.92,3.78,1.62,5.43c0.82,1.97,1.65,3.59,2.47,4.85
			c3.55,5.58,8.22,9.87,13.99,12.85c5.84,3.11,12.4,4.66,19.7,4.66h15.32h7.8h54.25c7.29,0,13.86-1.55,19.7-4.66
			c5.77-2.98,10.44-7.26,13.99-12.85c0.82-1.27,1.65-2.88,2.47-4.85c0.7-1.65,1.27-3.46,1.71-5.43c0.44-1.97,0.76-4.19,0.95-6.66
			c0.19-1.78,0.29-4.6,0.29-8.47V69.5H525.78z"/>
		<path class="st1" d="M271.27,80.74V72.9c0-7.84-3.49-11.76-10.46-11.76c-3.54,0-6.14,0.93-7.8,2.79l-12.75-12.8
			c1.98-2.49,4.22-4.52,6.72-6.08c3.99-2.46,8.61-3.7,13.84-3.7c5.26,0,9.89,1.23,13.88,3.7c4.05,2.46,7.31,6.08,9.78,10.86
			c1.17,2.31,2.04,5.18,2.61,8.61c0.42,2.85,0.69,14.69,0.81,35.51h-47.37V80.74H271.27z"/>
	</g>
	<polygon class="st1" points="230.15,100 230.15,42.21 231.37,42.21 231.37,26.57 210.68,26.57 210.68,100 	"/>
	<g>
		<path class="st1" d="M362.38,43.79c2.36,0,4.4-0.84,6.11-2.52c1.65-1.68,2.48-3.72,2.48-6.1c0-2.36-0.83-4.38-2.48-6.06
			c-1.71-1.68-3.75-2.52-6.11-2.52c-2.39,0-4.41,0.84-6.06,2.52c-1.71,1.68-2.56,3.7-2.56,6.06c0,2.42,0.85,4.45,2.56,6.1
			C357.97,42.95,359.99,43.79,362.38,43.79"/>
		<path class="st1" d="M342.48,43.79c2.39,0,4.42-0.84,6.1-2.52c1.65-1.68,2.48-3.72,2.48-6.1c0-2.36-0.83-4.38-2.48-6.06
			c-1.71-1.68-3.74-2.52-6.1-2.52c-2.39,0-4.41,0.84-6.06,2.52c-1.68,1.68-2.52,3.7-2.52,6.06c0,2.42,0.84,4.45,2.52,6.1
			C338.07,42.95,340.1,43.79,342.48,43.79"/>
		<path class="st1" d="M351.54,48.97v21.77c0,3.6-0.26,5.96-0.77,7.08c-0.54,1.92-2.71,2.9-6.49,2.93h-17.53h-2.79
			c-3.79-0.03-5.95-1.01-6.49-2.93c-0.48-1.11-0.72-3.47-0.72-7.08V42.21h1.22V26.57h-20.69v53.14c0,1.83,0.05,3.17,0.14,4.01
			c0.12,1.2,0.28,2.25,0.5,3.16c0.18,0.93,0.44,1.79,0.77,2.57c0.39,0.93,0.78,1.7,1.17,2.3c1.68,2.64,3.89,4.67,6.63,6.08
			c2.76,1.47,5.87,2.21,9.33,2.21h7.26h3.69h25.69c3.46,0,6.56-0.74,9.33-2.21c2.73-1.41,4.94-3.44,6.63-6.08
			c0.39-0.6,0.78-1.37,1.17-2.3c0.33-0.78,0.6-1.64,0.81-2.57c0.21-0.93,0.36-1.98,0.45-3.16c0.09-0.84,0.13-2.18,0.13-4.01V48.97
			H351.54z"/>
		<path class="st2" d="M254.07,168.16c3.72-0.74,5.8-2.72,6.25-5.93l-0.09-35.23l12.65,0.03v22.63l-0.32,12.57
			c-0.29,7.53-4.67,12.56-13.12,15.09L254.07,168.16z"/>
		<path class="st2" d="M266.52,108.66c-1.7,0-3.16,0.6-4.37,1.79c-1.21,1.23-1.82,2.7-1.82,4.4c0,1.72,0.61,3.18,1.82,4.38
			c1.19,1.23,2.65,1.85,4.37,1.85c1.72,0,3.19-0.62,4.4-1.85c1.21-1.19,1.82-2.65,1.82-4.38c0-1.7-0.61-3.17-1.82-4.4
			C269.71,109.26,268.24,108.66,266.52,108.66"/>
		<path class="st1" d="M185.97,85.6c-1.65,1.86-3.86,2.8-6.63,2.8c-2.73,0-4.93-0.93-6.58-2.8c-1.68-1.86-2.52-4.33-2.52-7.39
			c0-3.09,0.84-5.59,2.52-7.48s3.88-2.84,6.58-2.84c2.73,0,4.94,0.95,6.63,2.84c1.65,1.86,2.48,4.36,2.48,7.48
			S187.62,83.8,185.97,85.6 M179.35,55.7c-12.39,0-22.44,10.36-22.44,23.14c0,0.65,0.04,1.28,0.09,1.91h-17.13V64.86h-19.29v15.89
			h-2.42c-3.49,0-6.32-2.83-6.32-6.32V56.91H92.55v23.83h-2.43c-3.49,0-6.32-2.83-6.32-6.32V48.97H64.33v31.77H49.28h-1.99h-0.81
			c-3.79-0.03-5.95-1.01-6.49-2.93c-0.48-1.11-0.72-3.47-0.72-7.08V42.21h1.22V26.57H19.8v53.14c0,1.83,0.04,3.17,0.13,4.01
			c0.12,1.2,0.28,2.25,0.5,3.16c0.18,0.93,0.43,1.79,0.77,2.57c0.39,0.93,0.78,1.7,1.17,2.3c1.68,2.64,3.89,4.67,6.63,6.08
			c2.76,1.47,5.87,2.21,9.33,2.21h7.53h3.42h121.08c2.75,1.24,5.79,1.94,8.99,1.94c12.39,0,22.44-10.36,22.44-23.14
			C201.79,66.06,191.74,55.7,179.35,55.7"/>
		<path class="st2" d="M326.32,164.44c-1.72,0-3.18,0.61-4.37,1.82c-1.21,1.21-1.82,2.68-1.82,4.4s0.61,3.18,1.82,4.37
			c1.19,1.21,2.65,1.82,4.37,1.82s3.19-0.61,4.4-1.82c1.2-1.21,1.79-2.67,1.79-4.37c0-1.72-0.6-3.19-1.79-4.4
			C329.49,165.04,328.02,164.44,326.32,164.44"/>
		<path class="st2" d="M342.2,164.44c-1.72,0-3.18,0.61-4.37,1.82c-1.23,1.21-1.85,2.68-1.85,4.4s0.62,3.18,1.85,4.37
			c1.19,1.21,2.65,1.82,4.37,1.82c1.7,0,3.17-0.61,4.4-1.82c1.19-1.21,1.79-2.67,1.79-4.37c0-1.72-0.6-3.19-1.79-4.4
			C345.37,165.04,343.9,164.44,342.2,164.44"/>
		<path class="st2" d="M291.15,137.43c1.27-1.25,2.96-1.88,5.08-1.88c2.06,0,3.7,0.59,4.93,1.76l0.15,0.15v12.21l-8.92-0.03
			c-2.11-2.25-3.17-4.65-3.17-7.19C289.21,140.39,289.86,138.72,291.15,137.43 M358.29,128.97v14.18c0,2.35-0.16,3.89-0.47,4.61
			c-0.35,1.25-1.76,1.89-4.23,1.91h-1.09h-2.41h-1.2v-20.69h-12.65v14.18c0,2.35-0.17,3.89-0.5,4.61c-0.35,1.25-1.76,1.89-4.23,1.91
			h-11.42h-2.41h-3.85l0.03-14.21c-0.34-1.12-0.8-2.23-1.41-3.35c-1.8-3.17-4.06-5.54-6.78-7.11c-2.74-1.57-5.89-2.35-9.45-2.35
			c-2.72,0-5.17,0.44-7.34,1.32c-2.23,0.88-4.21,2.21-5.93,3.99c-1.78,1.74-3.1,3.76-3.96,6.05c-0.86,2.29-1.29,4.78-1.29,7.48
			c0,2.96,0.59,5.71,1.76,8.28h0.09l1.82,3.92c0,0,0,0,0,0l2.54,5.48c0,0,0-0.01,0.01-0.01l1.42,3.06h15.95c0,0.06,0,0.12-0.01,0.18
			c-0.41,3.79-4.71,6.43-9.59,5.9c-1.54-0.17-2.95-0.63-4.15-1.31l4.85,10.45c1.17,0.22,2.38,0.34,3.63,0.34
			c9.69,0,17.54-6.97,17.54-15.56h4.13h2.41h30h2.41h6.4c2.25,0,4.28-0.48,6.08-1.44c1.78-0.92,3.22-2.24,4.32-3.96
			c0.25-0.39,0.51-0.89,0.76-1.5c0.22-0.51,0.39-1.07,0.53-1.67c0.12-0.61,0.22-1.29,0.3-2.06c0.06-0.55,0.09-1.42,0.09-2.61v-20.02
			H358.29z"/>
		<path class="st2" d="M364.27,123.95c1.7,0,3.16-0.6,4.37-1.82c1.21-1.21,1.82-2.68,1.82-4.4c0-1.7-0.61-3.16-1.82-4.37
			c-1.21-1.21-2.67-1.82-4.37-1.82c-1.72,0-3.19,0.61-4.4,1.82c-1.21,1.21-1.82,2.67-1.82,4.37c0,1.74,0.61,3.21,1.82,4.4
			C361.06,123.35,362.53,123.95,364.27,123.95"/>
	</g>
</g>
</svg>
