<?xml version="1.0" encoding="utf-8"?>
<!-- Generator: Adobe Illustrator 26.5.0, SVG Export Plug-In . SVG Version: 6.00 Build 0)  -->
<svg version="1.1" id="Calque_1" xmlns="http://www.w3.org/2000/svg" xmlns:xlink="http://www.w3.org/1999/xlink" x="0px" y="0px"
	 viewBox="0 0 841.89 595.28" style="enable-background:new 0 0 841.89 595.28;" xml:space="preserve">
<style type="text/css">
	.st0{fill:#FFFFFF;}
	.st1{fill:#878787;}
</style>
<g>
	<g>
		<path d="M560.91,240.94h-44.76h-41.64H253.98v86.39c0,14.88,12.11,27,27,27h220.53h14.64h44.76c14.89,0,26.99-12.11,26.99-27
			v-59.4C587.9,253.05,575.8,240.94,560.91,240.94"/>
		<path class="st0" d="M476.88,243.31v84.03c0,13.58,11.05,24.63,24.63,24.63h59.4c13.58,0,24.63-11.05,24.63-24.63v-59.4
			c0-13.58-11.05-24.63-24.63-24.63H476.88z"/>
		<path class="st1" d="M564.77,253.53c-2.93,0-5.42,1.03-7.45,3.1c-2.1,2.07-3.15,4.55-3.15,7.45c0,2.97,1.05,5.47,3.15,7.5
			c2.03,2.07,4.52,3.1,7.45,3.1c2.9,0,5.4-1.03,7.5-3.1c2.03-2.07,3.05-4.57,3.05-7.5c0-2.9-1.02-5.38-3.05-7.45
			C570.17,254.56,567.67,253.53,564.77,253.53"/>
		<path class="st1" d="M541.46,253.53c-2.93,0-5.42,1.03-7.45,3.1c-2.1,2.07-3.15,4.55-3.15,7.45c0,2.97,1.05,5.47,3.15,7.5
			c2.03,2.07,4.52,3.1,7.45,3.1c2.9,0,5.4-1.03,7.5-3.1c2.03-2.07,3.05-4.57,3.05-7.5c0-2.9-1.02-5.38-3.05-7.45
			C546.86,254.56,544.35,253.53,541.46,253.53"/>
		<path class="st1" d="M513.2,264.07v-10.54H487.1v10.57h25.76C513.06,264.07,513.2,264.07,513.2,264.07"/>
		<path d="M552.06,280.35v26.06c0,4.32-0.31,7.14-0.92,8.47c-0.65,2.3-3.24,3.47-7.77,3.51h-2.56v0c-3.37,0-6.67,1.4-9.48,4.03
			c-2.82-2.63-6.11-4.03-9.49-4.03v0h-2.81c-4.53-0.03-7.12-1.2-7.77-3.51c-0.58-1.33-0.86-4.15-0.86-8.47v-2.8h15.13v-23.26h-15.13
			v-13.49c0-2.16,1.71-2.64,2.45-2.75H487.1v53.03c0,2.19,0.05,3.8,0.16,4.8c0.14,1.44,0.34,2.7,0.59,3.78
			c0.22,1.12,0.52,2.14,0.92,3.08c0.47,1.12,0.93,2.03,1.4,2.75c2.01,3.16,4.66,5.59,7.93,7.28c3.31,1.76,7.03,2.64,11.17,2.64h8.69
			h4.42h30.75c4.14,0,7.86-0.88,11.17-2.64c3.27-1.69,5.92-4.12,7.93-7.28c0.47-0.72,0.93-1.64,1.4-2.75
			c0.4-0.93,0.72-1.96,0.97-3.08c0.25-1.12,0.43-2.38,0.54-3.78c0.11-1.01,0.16-2.61,0.16-4.8v-36.8H552.06z"/>
		<path class="st0" d="M407.77,286.72v-4.45c0-4.44-1.98-6.67-5.93-6.67c-2.01,0-3.48,0.53-4.42,1.58l-7.23-7.26
			c1.12-1.41,2.39-2.56,3.81-3.45c2.26-1.4,4.88-2.1,7.84-2.1c2.98,0,5.6,0.7,7.87,2.1c2.3,1.4,4.15,3.45,5.54,6.16
			c0.66,1.31,1.16,2.94,1.48,4.88c0.24,1.62,0.39,8.33,0.46,20.13h-26.85v-10.93H407.77z"/>
	</g>
	<polygon class="st0" points="384.46,297.64 384.46,264.87 385.15,264.87 385.15,256.01 373.43,256.01 373.43,297.64 	"/>
	<g>
		<path class="st0" d="M459.43,265.77c1.34,0,2.49-0.48,3.46-1.43c0.94-0.95,1.41-2.11,1.41-3.46c0-1.34-0.47-2.48-1.41-3.44
			c-0.97-0.95-2.12-1.43-3.46-1.43c-1.35,0-2.5,0.48-3.44,1.43c-0.97,0.95-1.45,2.1-1.45,3.44c0,1.37,0.48,2.52,1.45,3.46
			C456.93,265.29,458.07,265.77,459.43,265.77"/>
		<path class="st0" d="M448.15,265.77c1.35,0,2.51-0.48,3.46-1.43c0.94-0.95,1.41-2.11,1.41-3.46c0-1.34-0.47-2.48-1.41-3.44
			c-0.97-0.95-2.12-1.43-3.46-1.43c-1.35,0-2.5,0.48-3.44,1.43c-0.95,0.95-1.43,2.1-1.43,3.44c0,1.37,0.48,2.52,1.43,3.46
			C445.65,265.29,446.79,265.77,448.15,265.77"/>
		<path class="st0" d="M453.28,268.71v12.34c0,2.04-0.14,3.38-0.43,4.01c-0.31,1.09-1.54,1.64-3.68,1.66h-9.94h-1.58
			c-2.15-0.02-3.37-0.57-3.68-1.66c-0.27-0.63-0.41-1.97-0.41-4.01v-16.17h0.69v-8.87h-11.73v30.12c0,1.04,0.02,1.8,0.08,2.27
			c0.07,0.68,0.16,1.28,0.28,1.79c0.1,0.53,0.25,1.01,0.44,1.46c0.22,0.53,0.44,0.96,0.66,1.3c0.95,1.5,2.21,2.65,3.76,3.45
			c1.57,0.84,3.33,1.25,5.29,1.25h4.11h2.1h14.57c1.96,0,3.72-0.42,5.29-1.25c1.55-0.8,2.8-1.95,3.76-3.45
			c0.22-0.34,0.44-0.77,0.66-1.3c0.19-0.44,0.34-0.93,0.46-1.46c0.12-0.53,0.2-1.12,0.26-1.79c0.05-0.48,0.08-1.23,0.08-2.27v-17.42
			H453.28z"/>
		<path class="st1" d="M398.03,336.28c2.11-0.42,3.29-1.54,3.55-3.36l-0.05-19.97l7.17,0.02v12.83l-0.18,7.12
			c-0.17,4.27-2.65,7.12-7.44,8.55L398.03,336.28z"/>
		<path class="st1" d="M405.08,302.55c-0.96,0-1.79,0.34-2.48,1.01c-0.69,0.7-1.03,1.53-1.03,2.5c0,0.98,0.34,1.8,1.03,2.48
			c0.68,0.7,1.5,1.05,2.48,1.05c0.98,0,1.81-0.35,2.5-1.05c0.69-0.68,1.03-1.5,1.03-2.48c0-0.96-0.34-1.8-1.03-2.5
			C406.89,302.89,406.06,302.55,405.08,302.55"/>
		<path class="st0" d="M359.42,289.48c-0.94,1.06-2.19,1.58-3.76,1.58c-1.55,0-2.79-0.53-3.73-1.58c-0.95-1.05-1.43-2.45-1.43-4.19
			c0-1.76,0.48-3.17,1.43-4.24c0.95-1.07,2.2-1.61,3.73-1.61c1.55,0,2.8,0.54,3.76,1.61c0.94,1.06,1.41,2.47,1.41,4.24
			C360.82,287.06,360.35,288.45,359.42,289.48 M355.66,272.52c-7.03,0-12.72,5.87-12.72,13.12c0,0.36,0.02,0.72,0.05,1.08h-9.71
			v-9.01h-10.93v9.01h-1.37c-1.98,0-3.58-1.6-3.58-3.58v-9.93h-10.94v13.51h-1.37c-1.98,0-3.58-1.6-3.58-3.58v-14.43h-11.04v18.01
			h-8.54h-1.13h-0.46c-2.15-0.02-3.37-0.57-3.68-1.66c-0.27-0.63-0.41-1.97-0.41-4.01v-16.17h0.69v-8.87h-11.73v30.12
			c0,1.04,0.02,1.8,0.08,2.27c0.07,0.68,0.16,1.28,0.28,1.79c0.1,0.53,0.25,1.01,0.44,1.46c0.22,0.53,0.44,0.96,0.66,1.3
			c0.95,1.5,2.21,2.65,3.76,3.45c1.57,0.83,3.33,1.25,5.29,1.25h4.27h1.94h68.64c1.56,0.7,3.28,1.1,5.1,1.1
			c7.03,0,12.72-5.87,12.72-13.12C368.39,278.4,362.69,272.52,355.66,272.52"/>
		<path class="st1" d="M438.98,334.17c-0.98,0-1.8,0.34-2.48,1.03c-0.69,0.69-1.03,1.52-1.03,2.5s0.34,1.8,1.03,2.48
			c0.68,0.69,1.5,1.03,2.48,1.03s1.81-0.34,2.5-1.03c0.68-0.69,1.02-1.51,1.02-2.48c0-0.98-0.34-1.81-1.02-2.5
			C440.78,334.51,439.95,334.17,438.98,334.17"/>
		<path class="st1" d="M447.99,334.17c-0.98,0-1.8,0.34-2.48,1.03c-0.7,0.69-1.05,1.52-1.05,2.5s0.35,1.8,1.05,2.48
			c0.68,0.69,1.5,1.03,2.48,1.03c0.96,0,1.8-0.34,2.5-1.03c0.68-0.69,1.01-1.51,1.01-2.48c0-0.98-0.34-1.81-1.01-2.5
			C449.78,334.51,448.95,334.17,447.99,334.17"/>
		<path class="st1" d="M419.04,318.86c0.72-0.71,1.68-1.07,2.88-1.07c1.16,0,2.1,0.33,2.8,1l0.08,0.08v6.92l-5.06-0.02
			c-1.2-1.28-1.8-2.63-1.8-4.08C417.95,320.54,418.31,319.59,419.04,318.86 M457.11,314.06v8.04c0,1.33-0.09,2.2-0.27,2.61
			c-0.2,0.71-1,1.07-2.4,1.08h-0.62h-1.36h-0.68v-11.73h-7.17v8.04c0,1.33-0.09,2.2-0.28,2.61c-0.2,0.71-1,1.07-2.4,1.08h-6.47
			h-1.36h-2.18l0.02-8.05c-0.19-0.63-0.46-1.27-0.8-1.9c-1.02-1.8-2.3-3.14-3.84-4.03c-1.55-0.89-3.34-1.33-5.36-1.33
			c-1.54,0-2.93,0.25-4.16,0.75c-1.27,0.5-2.39,1.25-3.36,2.26c-1.01,0.99-1.76,2.13-2.25,3.43c-0.49,1.3-0.73,2.71-0.73,4.24
			c0,1.68,0.33,3.24,1,4.69h0.05l1.03,2.22c0,0,0,0,0,0l1.44,3.11c0,0,0,0,0-0.01l0.8,1.73h9.04c0,0.03,0,0.07,0,0.1
			c-0.23,2.15-2.67,3.65-5.44,3.35c-0.87-0.1-1.67-0.36-2.35-0.74l2.75,5.93c0.66,0.12,1.35,0.19,2.06,0.19
			c5.49,0,9.95-3.95,9.95-8.82h2.34h1.36h17.01h1.36h3.63c1.28,0,2.42-0.27,3.44-0.81c1.01-0.52,1.83-1.27,2.45-2.25
			c0.14-0.22,0.29-0.5,0.43-0.85c0.12-0.29,0.22-0.6,0.3-0.95c0.07-0.34,0.12-0.73,0.17-1.17c0.03-0.31,0.05-0.8,0.05-1.48v-11.35
			H457.11z"/>
		<path class="st1" d="M460.5,311.22c0.96,0,1.79-0.34,2.48-1.03c0.69-0.69,1.03-1.52,1.03-2.5c0-0.97-0.34-1.79-1.03-2.48
			c-0.69-0.69-1.52-1.03-2.48-1.03c-0.98,0-1.81,0.34-2.5,1.03c-0.69,0.69-1.03,1.51-1.03,2.48c0,0.99,0.34,1.82,1.03,2.5
			C458.68,310.88,459.51,311.22,460.5,311.22"/>
	</g>
</g>
</svg>
