<svg id="logoAwras" xmlns="http://www.w3.org/2000/svg" width="72.445" height="48.322" viewBox="0 0 72.445 48.322">
  <g id="Layer_1" data-name="Layer 1">
    <path id="Path_29" data-name="Path 29" d="M7.1,110.523v12.79A17.13,17.13,0,0,1,6,130.874H0a15.277,15.277,0,0,0,1.825-7.554h0V114.3c1.767-1.3,3.517-2.565,5.274-3.787Z" transform="translate(0 -82.61)" fill="#ed1e24" fill-rule="evenodd"/>
    <path id="Path_30" data-name="Path 30" d="M12.5,70.28v8.344c-1.767,1.386-3.535,2.83-5.274,4.292V70.28Z" transform="translate(-5.405 -52.537)" fill="#ed1e24" fill-rule="evenodd" opacity="0.8"/>
    <path id="Path_31" data-name="Path 31" d="M129.189,120.539v9.374a17.13,17.13,0,0,1-1.1,7.561h-6a15.276,15.276,0,0,0,1.825-7.554h0V119.34c1.654.439,3.431.838,5.274,1.2Z" transform="translate(-91.267 -89.211)" fill="#ed1e24" fill-rule="evenodd"/>
    <path id="Path_32" data-name="Path 32" d="M134.594,70.28V81.606a42.394,42.394,0,0,1-5.274-2.063V70.28Z" transform="translate(-96.671 -52.537)" fill="#ed1e24" fill-rule="evenodd" opacity="0.8"/>
    <path id="Path_33" data-name="Path 33" d="M267.784,3.4V1.52h3.55V0H266.06V5.271h5.274V3.4Z" transform="translate(-198.889)" fill="#ed1e24" fill-rule="evenodd" opacity="0.8"/>
    <path id="Path_34" data-name="Path 34" d="M66.714,91.431V107.6H61.44V90.085a4.111,4.111,0,0,1,2.729-.05A15.794,15.794,0,0,1,66.714,91.431Z" transform="translate(-45.929 -67.146)" fill="#ed1e24" fill-rule="evenodd"/>
    <path id="Path_35" data-name="Path 35" d="M66.714,70.28v3.969a9.579,9.579,0,0,0-5.274-.654V70.28Z" transform="translate(-45.929 -52.537)" fill="#ed1e24" fill-rule="evenodd" opacity="0.8"/>
    <path id="Path_36" data-name="Path 36" d="M39,93.61v16.822H33.73V96.925q.689-.462,1.373-.909A34.146,34.146,0,0,1,39,93.61Z" transform="translate(-25.214 -69.977)" fill="#ed1e24" fill-rule="evenodd"/>
    <path id="Path_37" data-name="Path 37" d="M39,70.28v3.815a22.144,22.144,0,0,0-5.274,3.436V70.28Z" transform="translate(-25.214 -52.537)" fill="#ed1e24" fill-rule="evenodd" opacity="0.8"/>
    <path id="Path_38" data-name="Path 38" d="M99.654,43.4V23.89H94.38V41C96.082,41.843,97.2,42.416,99.654,43.4Z" transform="translate(-70.552 -17.859)" fill="#ed1e24" fill-rule="evenodd" opacity="0.8"/>
    <path id="Path_39" data-name="Path 39" d="M94.38,118.715h5.274V107.061a23.444,23.444,0,0,1-5.274-2.711Z" transform="translate(-70.552 -78.005)" fill="#ed1e24" fill-rule="evenodd"/>
    <path id="Path_40" data-name="Path 40" d="M271.134,51.249V23.73H265.86V51.064q2.643.124,5.274.187Z" transform="translate(-198.74 -17.739)" fill="#ed1e24" fill-rule="evenodd" opacity="0.8"/>
    <path id="Path_41" data-name="Path 41" d="M265.86,141.444h5.274v-6.589q-2.631.02-5.274-.015Z" transform="translate(-198.74 -100.798)" fill="#ed1e24" fill-rule="evenodd"/>
    <path id="Path_42" data-name="Path 42" d="M164.253,80.779V67.87a22.669,22.669,0,0,1,21.394,15.938c-2.06-.136-4.108-.305-6.13-.5a16.226,16.226,0,0,0-9.894-8.642v7.263c-1.846-.338-3.641-.72-5.372-1.146Z" transform="translate(-122.783 -50.735)" fill="#ed1e24" fill-rule="evenodd" opacity="0.8"/>
    <path id="Path_43" data-name="Path 43" d="M164.23,135.507v-8.9c1.782.293,3.588.55,5.372.775v2.456h10.856q-.2-.757-.477-1.479,2.954.174,5.905.252a22.868,22.868,0,0,1-.863,14.353h-6.347a14.075,14.075,0,0,0,2.02-7.508l-16.476.05Z" transform="translate(-122.76 -94.645)" fill="#ed1e24" fill-rule="evenodd"/>
  </g>
</svg>
